<?xml version="1.0" encoding="UTF-8" standalone="no"?>
<!-- Created with Inkscape (http://www.inkscape.org/) -->

<svg
   xmlns:dc="http://purl.org/dc/elements/1.1/"
   xmlns:cc="http://creativecommons.org/ns#"
   xmlns:rdf="http://www.w3.org/1999/02/22-rdf-syntax-ns#"
   xmlns:svg="http://www.w3.org/2000/svg"
   xmlns="http://www.w3.org/2000/svg"
   xmlns:sodipodi="http://sodipodi.sourceforge.net/DTD/sodipodi-0.dtd"
   xmlns:inkscape="http://www.inkscape.org/namespaces/inkscape"
   width="560"
   height="130"
   id="svg3182"
   version="1.1"
   inkscape:version="0.48.4 r9939"
   sodipodi:docname="logo.svg"
   inkscape:export-filename="/home/jslater/Documents_FreeGeek/branding_assets/logo/logo_250.png"
   inkscape:export-xdpi="40.153847"
   inkscape:export-ydpi="40.153847">
  <defs
     id="defs3184">
    <inkscape:perspective
       sodipodi:type="inkscape:persp3d"
       inkscape:vp_x="0 : 90 : 1"
       inkscape:vp_y="0 : 1000 : 0"
       inkscape:vp_z="564.29846 : 90 : 1"
       inkscape:persp3d-origin="282.14923 : 60 : 1"
       id="perspective2836" />
  </defs>
  <sodipodi:namedview
     id="base"
     pagecolor="#ffffff"
     bordercolor="#666666"
     borderopacity="1.0"
     inkscape:pageopacity="1"
     inkscape:pageshadow="2"
     inkscape:zoom="1.3413199"
     inkscape:cx="362.30546"
     inkscape:cy="28.654682"
     inkscape:document-units="px"
     inkscape:current-layer="g2827"
     showgrid="false"
     fit-margin-top="36"
     fit-margin-left="36"
     fit-margin-right="36"
     fit-margin-bottom="36"
     inkscape:window-width="1280"
     inkscape:window-height="726"
     inkscape:window-x="0"
     inkscape:window-y="25"
     inkscape:window-maximized="1"
     showguides="true"
     inkscape:guide-bbox="true">
    <sodipodi:guide
       orientation="1,0"
       position="5,5"
       id="guide3001" />
    <sodipodi:guide
       orientation="1,0"
       position="554.9571,178.64866"
       id="guide3003" />
    <sodipodi:guide
       orientation="0,1"
       position="5,5"
       id="guide3005" />
    <sodipodi:guide
       orientation="0,1"
       position="5,125"
       id="guide3007" />
  </sodipodi:namedview>
  <metadata
     id="metadata3187">
    <rdf:RDF>
      <cc:Work
         rdf:about="">
        <dc:format>image/svg+xml</dc:format>
        <dc:type
           rdf:resource="http://purl.org/dc/dcmitype/StillImage" />
        <dc:title />
      </cc:Work>
    </rdf:RDF>
  </metadata>
  <g
     inkscape:label="Layer 1"
     inkscape:groupmode="layer"
     id="layer1"
     transform="translate(-54.993636,-355.21932)">
    <g
       id="g2827"
       transform="matrix(1.1096083,0,0,1.1096083,-39.102877,-18.326076)">
      <path
         inkscape:connector-curvature="0"
         style="fill:none;stroke:#868686;stroke-width:5.25804853;stroke-linecap:round;stroke-linejoin:miter;stroke-miterlimit:4;stroke-opacity:1;stroke-dasharray:none"
         d="m 152.54243,389.83671 c 4.47204,2.60224 7.47826,7.44699 7.47826,12.99389 l 0,0 c 0,8.29698 -6.72603,15.02299 -15.023,15.02299 -8.29696,0 -15.02299,-6.72601 -15.02299,-15.02299 0,-5.5469 3.0062,-10.39165 7.47826,-12.99389"
         id="path6119" />
      <rect
         style="fill:none;stroke:#868686;stroke-width:4.56159401;stroke-linecap:round;stroke-linejoin:round;stroke-miterlimit:4.05000019;stroke-opacity:1;stroke-dasharray:none"
         id="rect6121"
         width="1.0720292"
         height="11.9637"
         x="144.58524"
         y="383.44629" />
      <path
         inkscape:connector-curvature="0"
         d="m 119.75166,383.36286 18.55041,-30.91736 c 0,0 7.45321,-7.22235 13.98298,-0.69258 l 17.28068,29.30134"
         style="fill:none;stroke:#22aa22;stroke-width:9.8718214;stroke-linecap:butt;stroke-linejoin:round;stroke-miterlimit:4;stroke-opacity:1;stroke-dasharray:none;marker:none"
         id="path1390" />
      <path
         inkscape:connector-curvature="0"
         d="m 139.94094,437.66067 -36.05043,-0.60645 c 0,0 -9.981359,-2.8435 -7.591289,-11.76332 l 16.735359,-29.61617"
         style="fill:none;stroke:#22aa22;stroke-width:9.8718214;stroke-linecap:butt;stroke-linejoin:round;stroke-miterlimit:4;stroke-opacity:1;stroke-dasharray:none;marker:none"
         id="path3262" />
      <path
         inkscape:connector-curvature="0"
         d="m 176.86959,393.02734 17.49999,31.52381 c 0,0 2.52812,10.06585 -6.39168,12.45592 l -34.01603,0.31484"
         style="fill:none;stroke:#22aa22;stroke-width:9.8718214;stroke-linecap:butt;stroke-linejoin:round;stroke-miterlimit:4;stroke-opacity:1;stroke-dasharray:none;marker:none"
         id="path3264" />
      <path
         inkscape:connector-curvature="0"
         d="m 140.0917,437.41089 20.68837,-12.18631 0,23.99474 -20.68837,-11.80843 z"
         style="fill:#22aa22;fill-opacity:1"
         id="head2" />
      <path
         inkscape:connector-curvature="0"
         d="m 99.478151,395.72857 20.688379,-12.18629 0,23.99472 -20.688379,-11.80843 z"
         style="fill:#22aa22;fill-opacity:1"
         id="head3" />
      <path
         inkscape:connector-curvature="0"
         d="m 155.92296,381.23329 20.68838,-12.18632 0,23.99475 -20.68838,-11.80843 z"
         style="fill:#22aa22;fill-opacity:1"
         id="head1" />
      <path
         inkscape:connector-curvature="0"
         id="path3004"
         style="font-size:40px;font-style:normal;font-variant:normal;font-weight:normal;font-stretch:normal;text-align:start;text-anchor:start;fill:#22aa22;fill-opacity:1;stroke:none;font-family:mry_KacstQurn;-inkscape-font-specification:mry_KacstQurn"
         d="m 250.22348,351.9968 -26.46717,0 0,12.09718 23.24125,0 0,9.23785 -23.24125,0 0,22.80135 -10.8508,0 0,-53.44754 37.31797,0 0,9.31116" />
      <path
         inkscape:connector-curvature="0"
         id="path3006"
         style="font-size:40px;font-style:normal;font-variant:normal;font-weight:normal;font-stretch:normal;text-align:start;text-anchor:start;fill:#22aa22;fill-opacity:1;stroke:none;font-family:mry_KacstQurn;-inkscape-font-specification:mry_KacstQurn"
         d="m 298.40089,396.13318 -12.02386,0 c -0.43993,-0.73316 -0.80651,-1.66183 -1.09975,-2.78602 -0.24441,-1.17305 -0.36661,-2.786 -0.36658,-4.83887 -3e-5,-0.6354 -3e-5,-1.24636 0,-1.8329 -3e-5,-0.6354 0.0244,-1.27081 0.0733,-1.90623 -3e-5,-3.22589 -0.48881,-5.52313 -1.46633,-6.89172 -1.22196,-1.66182 -3.42145,-2.49273 -6.59846,-2.49275 l -11.65728,0 0,20.74849 -10.99743,0 0,-53.44754 25.95394,0 c 4.88772,5e-5 8.92012,1.19755 12.09718,3.5925 3.47026,2.63943 5.20542,6.32967 5.20546,11.07075 -4e-5,2.83494 -0.70877,5.49875 -2.12617,7.99147 -1.41749,2.44391 -3.42147,4.15462 -6.01194,5.13214 2.19945,0.78207 3.83685,2.02844 4.91219,3.73913 1.27078,2.00399 1.90618,5.22991 1.90622,9.67774 l 0,3.22591 c -4e-5,1.90624 0.0978,3.44588 0.29327,4.61893 0.24435,1.12419 0.87975,2.02841 1.90622,2.7127 l 0,1.68627 m -19.72207,-44.20969 -13.41687,0 0,14.0034 12.90366,0 c 2.29721,3e-5 4.22787,-0.56206 5.79198,-1.68627 1.75956,-1.27079 2.63936,-3.03037 2.63939,-5.27877 -3e-5,-2.15057 -0.75763,-3.86128 -2.27281,-5.13214 -1.51523,-1.27077 -3.39701,-1.90617 -5.64535,-1.90622" />
      <path
         inkscape:connector-curvature="0"
         id="path3008"
         style="font-size:40px;font-style:normal;font-variant:normal;font-weight:normal;font-stretch:normal;text-align:start;text-anchor:start;fill:#22aa22;fill-opacity:1;stroke:none;font-family:mry_KacstQurn;-inkscape-font-specification:mry_KacstQurn"
         d="m 344.67896,396.13318 -40.1773,0 0,-53.44754 38.78429,0 0,9.31116 -27.93349,0 0,11.36402 25.58737,0 0,9.23785 -25.58737,0 0,13.71013 29.3265,0 0,9.82438" />
      <path
         inkscape:connector-curvature="0"
         id="path3010"
         style="font-size:40px;font-style:normal;font-variant:normal;font-weight:normal;font-stretch:normal;text-align:start;text-anchor:start;fill:#22aa22;fill-opacity:1;stroke:none;font-family:mry_KacstQurn;-inkscape-font-specification:mry_KacstQurn"
         d="m 388.47229,396.13318 -40.17729,0 0,-53.44754 38.78429,0 0,9.31116 -27.93349,0 0,11.36402 25.58737,0 0,9.23785 -25.58737,0 0,13.71013 29.32649,0 0,9.82438" />
      <path
         inkscape:connector-curvature="0"
         id="path3012"
         style="font-size:40px;font-style:normal;font-variant:normal;font-weight:normal;font-stretch:normal;text-align:start;text-anchor:start;fill:#737373;fill-opacity:1;stroke:none;font-family:mry_KacstQurn;-inkscape-font-specification:mry_KacstQurn"
         d="m 443.33637,396.2065 -7.47825,0 -1.24638,-6.3052 c -4.74116,5.18101 -10.48425,7.77152 -17.22931,7.77152 -7.67379,0 -13.88122,-2.85933 -18.62233,-8.578 -4.44785,-5.37651 -6.67178,-11.9994 -6.67178,-19.8687 0,-8.01587 2.29724,-14.61433 6.89173,-19.79538 4.83886,-5.47423 11.21736,-8.21136 19.13554,-8.21142 5.86527,6e-5 11.09515,1.61301 15.68967,4.83887 4.59444,3.22596 7.6004,7.64937 9.0179,13.27024 l -11.87723,0 c -0.92871,-2.54159 -2.56611,-4.59444 -4.91219,-6.15857 -2.29727,-1.56402 -4.81446,-2.34606 -7.55157,-2.34612 -4.79002,6e-5 -8.57802,1.95515 -11.36402,5.8653 -2.54164,3.5681 -3.81245,7.82043 -3.81244,12.75703 -10e-6,5.0344 1.2708,9.28674 3.81244,12.75703 2.83488,3.86133 6.72064,5.79199 11.65728,5.79198 3.27477,1e-5 6.10966,-1.09974 8.50469,-3.29923 2.44383,-2.24835 4.10567,-5.00993 4.9855,-8.28474 l -11.21738,0 0,-9.16453 22.28813,0 0,28.95992" />
      <path
         inkscape:connector-curvature="0"
         id="path3014"
         style="font-size:40px;font-style:normal;font-variant:normal;font-weight:normal;font-stretch:normal;text-align:start;text-anchor:start;fill:#737373;fill-opacity:1;stroke:none;font-family:mry_KacstQurn;-inkscape-font-specification:mry_KacstQurn"
         d="m 488.3738,396.13318 -40.1773,0 0,-53.44754 38.78429,0 0,9.31116 -27.93349,0 0,11.36402 25.58737,0 0,9.23785 -25.58737,0 0,13.71013 29.3265,0 0,9.82438" />
      <path
         inkscape:connector-curvature="0"
         id="path3016"
         style="font-size:40px;font-style:normal;font-variant:normal;font-weight:normal;font-stretch:normal;text-align:start;text-anchor:start;fill:#737373;fill-opacity:1;stroke:none;font-family:mry_KacstQurn;-inkscape-font-specification:mry_KacstQurn"
         d="m 532.16712,396.13318 -40.1773,0 0,-53.44754 38.78429,0 0,9.31116 -27.93348,0 0,11.36402 25.58737,0 0,9.23785 -25.58737,0 0,13.71013 29.32649,0 0,9.82438" />
      <path
         inkscape:connector-curvature="0"
         id="path3018"
         style="font-size:40px;font-style:normal;font-variant:normal;font-weight:normal;font-stretch:normal;text-align:start;text-anchor:start;fill:#737373;fill-opacity:1;stroke:none;font-family:mry_KacstQurn;-inkscape-font-specification:mry_KacstQurn"
         d="m 583.29207,396.13318 -13.34355,0 -17.44927,-24.41431 -5.71866,5.64535 0,18.76896 -10.99744,0 0,-53.44754 10.99744,0 0,21.99487 20.89513,-21.99487 13.71013,0 -21.26171,21.62829 23.16793,31.81925" />
      <path
         inkscape:connector-curvature="0"
         id="path3020"
         style="font-size:44.43211746000000062px;font-style:normal;font-variant:normal;font-weight:normal;font-stretch:normal;text-align:start;line-height:80.00000119000000609%;letter-spacing:5.46959686000000023;writing-mode:lr-tb;text-anchor:start;fill:#737373;fill-opacity:1;stroke:none;font-family:MgOpen Moderna;-inkscape-font-specification:MgOpen Moderna"
         d="m 241.77143,427.83203 c -3e-5,3.86086 -1.37244,7.02796 -4.11724,9.50131 -2.71468,2.47337 -6.01752,3.71005 -9.90852,3.71005 -4.76575,0 -8.49087,-1.76454 -11.17536,-5.2936 -2.4432,-3.19726 -3.6648,-7.25417 -3.6648,-12.17074 0,-4.94669 1.28192,-9.00361 3.84577,-12.17074 2.77499,-3.43854 6.59059,-5.15782 11.44684,-5.15785 3.49887,3e-5 6.53024,0.93507 9.09411,2.80515 2.8353,2.08126 4.25295,4.76577 4.25298,8.0535 l -4.34346,0 c -0.45247,-2.11139 -1.50818,-3.78542 -3.16711,-5.02213 -1.62882,-1.26682 -3.52908,-1.90024 -5.7008,-1.90027 -3.4989,3e-5 -6.25881,1.40261 -8.27972,4.20773 -1.80978,2.50355 -2.71466,5.56508 -2.71466,9.18461 0,3.5894 0.8898,6.63586 2.66942,9.13937 2.02091,2.83531 4.76573,4.25298 8.23448,4.25298 2.62415,0 4.81096,-0.87473 6.56043,-2.62419 1.74943,-1.74943 2.62415,-3.92116 2.62418,-6.51518 l 4.34346,0" />
      <path
         inkscape:connector-curvature="0"
         id="path3022"
         style="font-size:44.43211746000000062px;font-style:normal;font-variant:normal;font-weight:normal;font-stretch:normal;text-align:start;line-height:80.00000119000000609%;letter-spacing:5.46959686000000023;writing-mode:lr-tb;text-anchor:start;fill:#737373;fill-opacity:1;stroke:none;font-family:MgOpen Moderna;-inkscape-font-specification:MgOpen Moderna"
         d="m 275.3784,440.18375 -4.43395,0 0,-15.47359 -17.14762,0 0,15.47359 -4.56969,0 0,-32.98317 4.56969,0 0,13.48283 17.14762,0 0,-13.48283 4.43395,0 0,32.98317" />
      <path
         inkscape:connector-curvature="0"
         id="path3024"
         style="font-size:44.43211746000000062px;font-style:normal;font-variant:normal;font-weight:normal;font-stretch:normal;text-align:start;line-height:80.00000119000000609%;letter-spacing:5.46959686000000023;writing-mode:lr-tb;text-anchor:start;fill:#737373;fill-opacity:1;stroke:none;font-family:MgOpen Moderna;-inkscape-font-specification:MgOpen Moderna"
         d="m 290.45849,440.18375 -4.52443,0 0,-32.98317 4.52443,0 0,32.98317" />
      <path
         inkscape:connector-curvature="0"
         id="path3026"
         style="font-size:44.43211746000000062px;font-style:normal;font-variant:normal;font-weight:normal;font-stretch:normal;text-align:start;line-height:80.00000119000000609%;letter-spacing:5.46959686000000023;writing-mode:lr-tb;text-anchor:start;fill:#737373;fill-opacity:1;stroke:none;font-family:MgOpen Moderna;-inkscape-font-specification:MgOpen Moderna"
         d="m 328.55596,427.83203 c -3e-5,3.86086 -1.37244,7.02796 -4.11723,9.50131 -2.71469,2.47337 -6.01753,3.71005 -9.90852,3.71005 -4.76576,0 -8.49088,-1.76454 -11.17537,-5.2936 -2.44319,-3.19726 -3.66479,-7.25417 -3.66479,-12.17074 0,-4.94669 1.28192,-9.00361 3.84577,-12.17074 2.77498,-3.43854 6.59059,-5.15782 11.44683,-5.15785 3.49888,3e-5 6.53025,0.93507 9.09412,2.80515 2.83529,2.08126 4.25294,4.76577 4.25297,8.0535 l -4.34346,0 c -0.45247,-2.11139 -1.50816,-3.78542 -3.16711,-5.02213 -1.62882,-1.26682 -3.52907,-1.90024 -5.70079,-1.90027 -3.49891,3e-5 -6.25882,1.40261 -8.27972,4.20773 -1.80978,2.50355 -2.71467,5.56508 -2.71466,9.18461 -1e-5,3.5894 0.8898,6.63586 2.66941,9.13937 2.02091,2.83531 4.76574,4.25298 8.23448,4.25298 2.62416,0 4.81096,-0.87473 6.56044,-2.62419 1.74942,-1.74943 2.62415,-3.92116 2.62417,-6.51518 l 4.34346,0" />
      <path
         inkscape:connector-curvature="0"
         id="path3028"
         style="font-size:44.43211746000000062px;font-style:normal;font-variant:normal;font-weight:normal;font-stretch:normal;text-align:start;line-height:80.00000119000000609%;letter-spacing:5.46959686000000023;writing-mode:lr-tb;text-anchor:start;fill:#737373;fill-opacity:1;stroke:none;font-family:MgOpen Moderna;-inkscape-font-specification:MgOpen Moderna"
         d="m 363.03778,440.18375 -4.88639,0 -3.48383,-9.86329 -12.98513,0 -3.52907,9.86329 -4.66017,0 12.26123,-32.98317 4.97688,0 12.30648,32.98317 m -9.6823,-13.70906 -5.11262,-14.52345 -5.2031,14.52345 10.31572,0" />
      <path
         inkscape:connector-curvature="0"
         id="path3030"
         style="font-size:44.43211746000000062px;font-style:normal;font-variant:normal;font-weight:normal;font-stretch:normal;text-align:start;line-height:80.00000119000000609%;letter-spacing:5.46959686000000023;writing-mode:lr-tb;text-anchor:start;fill:#737373;fill-opacity:1;stroke:none;font-family:MgOpen Moderna;-inkscape-font-specification:MgOpen Moderna"
         d="m 398.30959,440.18375 -2.89563,0 -0.99538,-4.43396 c -1.29703,1.68913 -2.89567,3.00121 -4.7959,3.93626 -1.87013,0.93506 -3.86088,1.40258 -5.97226,1.40258 -4.58478,0 -8.32498,-1.74945 -11.22061,-5.24835 -2.74483,-3.28775 -4.11724,-7.26926 -4.11724,-11.94452 0,-5.03718 1.35733,-9.18458 4.07199,-12.4422 2.9258,-3.49887 6.84698,-5.24832 11.76354,-5.24835 3.49889,3e-5 6.51517,0.93508 9.04888,2.80515 2.7448,2.02095 4.28311,4.72052 4.61493,8.09875 l -4.34346,0 c -0.54296,-2.14155 -1.67406,-3.86083 -3.39333,-5.15787 -1.71931,-1.29697 -3.69498,-1.94548 -5.92702,-1.94551 -3.55924,3e-5 -6.36439,1.41769 -8.41545,4.25298 -1.87011,2.56388 -2.80516,5.68573 -2.80515,9.36559 -1e-5,3.5894 0.93504,6.66601 2.80515,9.22985 2.08123,2.83532 4.85621,4.25297 8.32497,4.25297 3.07659,0 5.56504,-1.10094 7.46532,-3.30283 1.80975,-2.08124 2.71464,-4.67525 2.71466,-7.78204 l -10.36096,0 0,-3.71004 14.43295,0 0,17.87154" />
      <path
         inkscape:connector-curvature="0"
         id="path3032"
         style="font-size:44.43211746000000062px;font-style:normal;font-variant:normal;font-weight:normal;font-stretch:normal;text-align:start;line-height:80.00000119000000609%;letter-spacing:5.46959686000000023;writing-mode:lr-tb;text-anchor:start;fill:#737373;fill-opacity:1;stroke:none;font-family:MgOpen Moderna;-inkscape-font-specification:MgOpen Moderna"
         d="m 422.72312,406.25046 c 4.70539,3e-5 8.49083,1.71931 11.35634,5.15785 2.68447,3.22747 4.02672,7.25421 4.02675,12.08025 -3e-5,4.8864 -1.34228,8.97348 -4.02675,12.26123 -2.86551,3.52906 -6.69619,5.2936 -11.49208,5.2936 -4.79591,0 -8.65676,-1.70421 -11.58256,-5.11262 -2.74483,-3.22743 -4.11724,-7.28433 -4.11724,-12.17074 0,-4.88637 1.38749,-8.97345 4.16248,-12.26123 2.95596,-3.49887 6.84697,-5.24831 11.67306,-5.24834 m -0.18098,30.76618 c 3.43855,0 6.1683,-1.38749 8.18923,-4.16249 1.80975,-2.50351 2.71463,-5.53488 2.71466,-9.09412 -3e-5,-3.58937 -0.88983,-6.62074 -2.66942,-9.09412 -2.02093,-2.80512 -4.76576,-4.2077 -8.23447,-4.20773 -3.46875,3e-5 -6.22866,1.38753 -8.27973,4.16248 -1.83994,2.47339 -2.75991,5.51984 -2.75991,9.13937 0,3.5894 0.91997,6.63586 2.75991,9.13936 2.02091,2.74484 4.78081,4.11725 8.27973,4.11725" />
    </g>
  </g>
</svg>
